<svg width="396" height="244.58567896330283" viewBox="0 0 350 216.17421120493935" class="looka-1j8o68f"><defs id="SvgjsDefs1019"><linearGradient id="SvgjsLinearGradient1024"><stop id="SvgjsStop1025" stop-color="#905e26" offset="0"></stop><stop id="SvgjsStop1026" stop-color="#f5ec9b" offset="0.5"></stop><stop id="SvgjsStop1027" stop-color="#905e26" offset="1"></stop></linearGradient><linearGradient id="SvgjsLinearGradient1028"><stop id="SvgjsStop1029" stop-color="#905e26" offset="0"></stop><stop id="SvgjsStop1030" stop-color="#f5ec9b" offset="0.5"></stop><stop id="SvgjsStop1031" stop-color="#905e26" offset="1"></stop></linearGradient></defs><g id="SvgjsG1020" featurekey="aMgJeN-0" transform="matrix(0.43370509694625675,0,0,0.43370509694625675,60.02480262367986,-45.79926088465055)" fill="url(#SvgjsLinearGradient1024)"><g xmlns="http://www.w3.org/2000/svg"><path d="M255.2,145c-20.8,0-37.7,16.9-37.7,37.7s16.9,37.7,37.7,37.7s37.7-16.9,37.7-37.7S276,145,255.2,145z M255.2,205.4   c-12.5,0-22.7-10.2-22.7-22.7s10.2-22.7,22.7-22.7c12.5,0,22.7,10.2,22.7,22.7S267.7,205.4,255.2,205.4z"></path><path d="M194.5,199.4c-9.6-3.1-19.8-2.3-28.8,2.3c-9,4.6-15.6,12.4-18.7,21.9c-3.1,9.6-2.3,19.8,2.3,28.8   c4.6,9,12.4,15.6,21.9,18.7c3.9,1.3,7.8,1.8,11.6,1.8c15.9,0,30.7-10.1,35.9-26c3.1-9.6,2.3-19.8-2.3-28.8   C211.8,209.2,204,202.6,194.5,199.4z M204.4,242.3c-1.9,5.8-5.9,10.5-11.3,13.2c-5.4,2.8-11.5,3.2-17.3,1.4   c-5.8-1.9-10.5-5.9-13.2-11.3s-3.2-11.5-1.4-17.3c1.9-5.8,5.9-10.5,11.3-13.2c3.2-1.7,6.7-2.5,10.3-2.5c2.4,0,4.7,0.4,7,1.1h0   c5.8,1.9,10.5,5.9,13.2,11.3S206.3,236.5,204.4,242.3z"></path><path d="M188.3,350.8c6.5,4.7,14.2,7.2,22.1,7.2c2,0,4-0.2,6-0.5c9.9-1.6,18.7-6.9,24.6-15.1c5.9-8.1,8.3-18.1,6.7-28.1   c-1.6-9.9-6.9-18.7-15.1-24.6c-8.1-5.9-18.1-8.3-28.1-6.7c-9.9,1.6-18.7,6.9-24.6,15.1l0,0c-5.9,8.1-8.3,18.1-6.7,28.1   C174.8,336.2,180.2,344.9,188.3,350.8z M192.1,307c3.6-4.9,8.8-8.1,14.8-9.1c6-0.9,12,0.5,16.9,4.1c4.9,3.6,8.1,8.8,9.1,14.8   c0.9,6-0.5,12-4.1,16.9c-3.6,4.9-8.8,8.1-14.8,9.1c-6,0.9-12-0.5-16.9-4.1c-4.9-3.6-8.1-8.8-9.1-14.8   C187.1,317.9,188.5,311.9,192.1,307L192.1,307z"></path><path d="M294,357.6c2,0.3,4,0.5,6,0.5c7.9,0,15.6-2.5,22.1-7.2c8.1-5.9,13.5-14.7,15.1-24.6c1.6-9.9-0.8-19.9-6.7-28.1   c-5.9-8.1-14.7-13.5-24.6-15.1c-9.9-1.6-19.9,0.8-28,6.7c-16.8,12.2-20.6,35.8-8.3,52.6c0,0,0,0,0,0   C275.3,350.7,284.1,356,294,357.6z M286.6,302c10.1-7.4,24.3-5.1,31.7,5c3.6,4.9,5,10.9,4.1,16.9c-0.9,6-4.2,11.2-9.1,14.8   c-4.9,3.6-10.9,5-16.9,4.1c-6-0.9-11.2-4.2-14.8-9.1v0C274.2,323.6,276.4,309.3,286.6,302z"></path><path d="M327.6,273c3.9,0,7.8-0.6,11.6-1.8c19.8-6.4,30.6-27.7,24.2-47.5c-3.1-9.6-9.8-17.4-18.7-21.9c-9-4.6-19.2-5.4-28.8-2.3   c-19.8,6.4-30.6,27.7-24.2,47.5C296.9,262.8,311.7,273,327.6,273z M320.5,213.7c2.3-0.8,4.7-1.1,7-1.1c3.5,0,7,0.8,10.3,2.5   c5.4,2.8,9.4,7.4,11.3,13.2c3.9,11.9-2.7,24.7-14.6,28.6c-11.9,3.9-24.7-2.7-28.6-14.6C302.1,230.4,308.6,217.6,320.5,213.7z"></path><circle cx="255.2" cy="258.8" r="12.8"></circle><path d="M418.9,393.7H255.2c-75.3,0-136.6-61.3-136.6-136.6c0-75.3,61.3-136.6,136.6-136.6s136.6,61.3,136.6,136.6   c0,43.2-20.8,84.4-55.7,110.1c-3.3,2.5-4,7.2-1.6,10.5c2.5,3.3,7.2,4,10.5,1.6c18.7-13.8,34.3-32,45-52.6   c11-21.3,16.9-45.4,16.9-69.5c0-83.6-68-151.6-151.6-151.6c-83.6,0-151.6,68-151.6,151.6c0,83.6,68,151.6,151.6,151.6h163.7   c4.1,0,7.5-3.4,7.5-7.5S423,393.7,418.9,393.7z"></path></g></g><g id="SvgjsG1021" featurekey="8L6ael-0" transform="matrix(3.5014968022600605,0,0,3.5014968022600605,-1.0252385047983081,128.80777102020463)" fill="url(#SvgjsLinearGradient1028)"><path d="M11.494 15.498000000000001 c0 0.65755 -0.068417 1.3167 -0.20514 1.9775 s-0.33854 1.2923 -0.60547 1.8945 s-0.5957 1.1621 -0.98633 1.6797 s-0.83821 0.9668 -1.3428 1.3477 s-1.0677 0.68034 -1.6895 0.89844 s-1.2939 0.32715 -2.0166 0.32715 c-0.64453 0 -1.2224 -0.08626 -1.7334 -0.25879 s-0.944 -0.42807 -1.2988 -0.76661 s-0.62662 -0.75521 -0.81542 -1.25 s-0.2832 -1.0645 -0.2832 -1.709 c0 -0.22786 0.0097656 -0.45572 0.029297 -0.68358 s0.055342 -0.45247 0.10742 -0.67383 l0.15625 -0.019531 l0 0.13672 c-0.0065136 0.59245 0.076494 1.1702 0.24902 1.7334 s0.42969 1.0645 0.77148 1.5039 s0.76823 0.79265 1.2793 1.0596 s1.0986 0.40039 1.7627 0.40039 c0.65755 0 1.2419 -0.12858 1.7529 -0.38574 s0.9554 -0.60059 1.333 -1.0303 s0.69499 -0.92285 0.95215 -1.4795 s0.46387 -1.136 0.62012 -1.7383 s0.26855 -1.2012 0.33691 -1.7969 s0.10254 -1.1507 0.10254 -1.665 c0 -0.50781 -0.047197 -1.0628 -0.1416 -1.665 s-0.23764 -1.2061 -0.4297 -1.8115 s-0.4362 -1.1914 -0.73242 -1.7578 s-0.64615 -1.0677 -1.0498 -1.5039 s-0.86426 -0.78613 -1.3818 -1.0498 s-1.0921 -0.39551 -1.7236 -0.39551 c-0.24089 0 -0.48828 0.040693 -0.74219 0.12207 s-0.50456 0.19205 -0.75195 0.33202 s-0.48014 0.30436 -0.69823 0.49315 s-0.40853 0.39551 -0.57129 0.62012 s-0.29297 0.45898 -0.39063 0.70313 s-0.14648 0.48991 -0.14648 0.7373 c0 0.18229 0.022783 0.34506 0.068359 0.48829 s0.096035 0.27507 0.15138 0.39551 s0.1058 0.23438 0.15138 0.3418 s0.068359 0.21647 0.068359 0.32715 c0 0.1888 -0.063477 0.34668 -0.19043 0.47363 s-0.28157 0.19043 -0.46387 0.19043 c-0.14974 0 -0.27018 -0.032549 -0.36132 -0.097656 s-0.16113 -0.14812 -0.20996 -0.24902 s-0.083008 -0.21321 -0.10254 -0.33691 s-0.029297 -0.24414 -0.029297 -0.36133 c0 -0.27995 0.039063 -0.5599 0.11719 -0.83985 s0.18229 -0.55176 0.3125 -0.81543 s0.27994 -0.51433 0.44921 -0.75195 s0.3418 -0.46061 0.51758 -0.66894 c0.42969 -0.48828 0.91472 -0.87402 1.4551 -1.1572 s1.1426 -0.4248 1.8066 -0.4248 c0.8138 0 1.5413 0.13347 2.1826 0.40039 s1.2044 0.62988 1.6895 1.0889 s0.89682 0.99287 1.2354 1.6016 s0.61361 1.2517 0.82521 1.9287 s0.36621 1.3704 0.46387 2.0801 s0.14648 1.3965 0.14648 2.0605 z M4.8729 8.936 c0 0.065107 -0.0081539 0.12532 -0.024433 0.18066 s-0.03418 0.10905 -0.053711 0.16113 c-0.11067 0.29297 -0.236 0.57454 -0.37597 0.84473 s-0.24902 0.55502 -0.32715 0.8545 c-0.29297 1.1198 -0.50456 2.155 -0.63477 3.1055 s-0.20996 1.8571 -0.23926 2.7197 s-0.024414 1.7058 0.014648 2.5293 s0.084639 1.665 0.13672 2.5244 l-0.15625 0.068359 c-0.16927 -0.52083 -0.31087 -1.0628 -0.4248 -1.626 s-0.20508 -1.1345 -0.27344 -1.7139 s-0.11556 -1.1589 -0.1416 -1.7383 s-0.039063 -1.1426 -0.039063 -1.6895 c0 -0.25391 0.0048828 -0.56315 0.014648 -0.92773 s0.030928 -0.75521 0.063477 -1.1719 s0.081377 -0.83984 0.14648 -1.2695 s0.15463 -0.83333 0.26856 -1.2109 s0.25391 -0.71289 0.41992 -1.0059 s0.36946 -0.51106 0.61035 -0.6543 c0.11067 -0.058594 0.22461 -0.11556 0.3418 -0.1709 s0.24089 -0.083008 0.37109 -0.083008 c0.20183 0 0.30273 0.091143 0.30273 0.27344 z M18.646528125 14.8828 c0 0.071611 -0.026017 0.13513 -0.078097 0.19047 s-0.11393 0.083008 -0.18554 0.083008 c-0.058594 0 -0.12044 -0.0179 -0.18555 -0.053711 s-0.13835 -0.076504 -0.21973 -0.12208 s-0.17578 -0.08627 -0.2832 -0.12208 s-0.22949 -0.053711 -0.36621 -0.053711 c-0.31901 0 -0.60385 0.099287 -0.8545 0.29785 s-0.46225 0.44434 -0.63478 0.7373 s-0.30437 0.60547 -0.39551 0.9375 s-0.13672 0.63151 -0.13672 0.89844 c0 0.1888 0.016279 0.37271 0.048828 0.55175 s0.089512 0.3418 0.17089 0.48828 s0.19368 0.26367 0.33691 0.35156 s0.32553 0.13184 0.54688 0.13184 c0.23438 0 0.45898 -0.043945 0.67383 -0.13184 s0.41667 -0.20345 0.60547 -0.34668 c0.0065136 -0.20833 0.040693 -0.42806 0.10254 -0.65918 s0.1416 -0.45898 0.23926 -0.68359 s0.20996 -0.43782 0.33691 -0.63965 s0.25879 -0.38086 0.39551 -0.53711 l0.12695 0.078125 c-0.071611 0.22136 -0.12369 0.44922 -0.15624 0.68359 s-0.048828 0.4655 -0.048828 0.69336 c0 0.23438 0.019531 0.45573 0.058594 0.66406 s0.10742 0.38899 0.20508 0.54199 s0.23112 0.27344 0.40039 0.36133 s0.38736 0.13184 0.65429 0.13184 c0.32552 0 0.625 -0.074873 0.89844 -0.22461 s0.51433 -0.33854 0.72266 -0.5664 l0.078125 0.039063 c-0.11719 0.22786 -0.27019 0.44596 -0.45898 0.65429 s-0.39876 0.39551 -0.62988 0.56152 s-0.47689 0.29785 -0.73731 0.39551 s-0.51758 0.14648 -0.77148 0.14648 c-0.35808 0 -0.65104 -0.10254 -0.87891 -0.30762 s-0.38411 -0.46387 -0.46875 -0.77637 c-0.27344 0.27344 -0.5778 0.50293 -0.91309 0.68848 s-0.68848 0.27832 -1.0596 0.27832 c-0.27344 0 -0.51595 -0.050459 -0.72754 -0.15137 s-0.389 -0.236 -0.53224 -0.40526 s-0.25229 -0.36946 -0.32716 -0.60059 s-0.1123 -0.47363 -0.1123 -0.72754 c0 -0.29297 0.047197 -0.59407 0.1416 -0.90332 s0.22461 -0.61361 0.39063 -0.9131 s0.36296 -0.58269 0.59082 -0.84961 s0.47688 -0.5013 0.74707 -0.70313 s0.55502 -0.36133 0.8545 -0.47852 s0.60547 -0.17578 0.91797 -0.17578 c0.071611 0 0.1595 0.0081349 0.26367 0.024414 s0.20508 0.043945 0.30273 0.083008 s0.18066 0.094404 0.24902 0.16602 s0.10254 0.16275 0.10254 0.27343 z M33.884625 15.498000000000001 c0 0.65755 -0.068417 1.3167 -0.20514 1.9775 s-0.33854 1.2923 -0.60547 1.8945 s-0.5957 1.1621 -0.98633 1.6797 s-0.83821 0.9668 -1.3428 1.3477 s-1.0677 0.68034 -1.6895 0.89844 s-1.2939 0.32715 -2.0166 0.32715 c-0.64453 0 -1.2224 -0.08626 -1.7334 -0.25879 s-0.944 -0.42807 -1.2988 -0.76661 s-0.62662 -0.75521 -0.81542 -1.25 s-0.2832 -1.0645 -0.2832 -1.709 c0 -0.22786 0.0097656 -0.45572 0.029297 -0.68358 s0.055342 -0.45247 0.10742 -0.67383 l0.15625 -0.019531 l0 0.13672 c-0.0065136 0.59245 0.076494 1.1702 0.24902 1.7334 s0.42969 1.0645 0.77148 1.5039 s0.76823 0.79265 1.2793 1.0596 s1.0986 0.40039 1.7627 0.40039 c0.65755 0 1.2419 -0.12858 1.7529 -0.38574 s0.9554 -0.60059 1.333 -1.0303 s0.69499 -0.92285 0.95215 -1.4795 s0.46387 -1.136 0.62012 -1.7383 s0.26855 -1.2012 0.33691 -1.7969 s0.10254 -1.1507 0.10254 -1.665 c0 -0.50781 -0.047197 -1.0628 -0.1416 -1.665 s-0.23764 -1.2061 -0.4297 -1.8115 s-0.4362 -1.1914 -0.73242 -1.7578 s-0.64615 -1.0677 -1.0498 -1.5039 s-0.86426 -0.78613 -1.3818 -1.0498 s-1.0921 -0.39551 -1.7236 -0.39551 c-0.24089 0 -0.48828 0.040693 -0.74219 0.12207 s-0.50456 0.19205 -0.75195 0.33202 s-0.48014 0.30436 -0.69823 0.49315 s-0.40853 0.39551 -0.57129 0.62012 s-0.29297 0.45898 -0.39063 0.70313 s-0.14648 0.48991 -0.14648 0.7373 c0 0.18229 0.022783 0.34506 0.068359 0.48829 s0.096035 0.27507 0.15138 0.39551 s0.1058 0.23438 0.15138 0.3418 s0.068359 0.21647 0.068359 0.32715 c0 0.1888 -0.063477 0.34668 -0.19043 0.47363 s-0.28157 0.19043 -0.46387 0.19043 c-0.14974 0 -0.27018 -0.032549 -0.36132 -0.097656 s-0.16113 -0.14812 -0.20996 -0.24902 s-0.083008 -0.21321 -0.10254 -0.33691 s-0.029297 -0.24414 -0.029297 -0.36133 c0 -0.27995 0.039063 -0.5599 0.11719 -0.83985 s0.18229 -0.55176 0.3125 -0.81543 s0.27994 -0.51433 0.44921 -0.75195 s0.3418 -0.46061 0.51758 -0.66894 c0.42969 -0.48828 0.91472 -0.87402 1.4551 -1.1572 s1.1426 -0.4248 1.8066 -0.4248 c0.8138 0 1.5413 0.13347 2.1826 0.40039 s1.2044 0.62988 1.6895 1.0889 s0.89682 0.99287 1.2354 1.6016 s0.61361 1.2517 0.82521 1.9287 s0.36621 1.3704 0.46387 2.0801 s0.14648 1.3965 0.14648 2.0605 z M27.263525 8.936 c0 0.065107 -0.0081539 0.12532 -0.024433 0.18066 s-0.03418 0.10905 -0.053711 0.16113 c-0.11067 0.29297 -0.236 0.57454 -0.37597 0.84473 s-0.24902 0.55502 -0.32715 0.8545 c-0.29297 1.1198 -0.50456 2.155 -0.63477 3.1055 s-0.20996 1.8571 -0.23926 2.7197 s-0.024414 1.7058 0.014648 2.5293 s0.084639 1.665 0.13672 2.5244 l-0.15625 0.068359 c-0.16927 -0.52083 -0.31087 -1.0628 -0.4248 -1.626 s-0.20508 -1.1345 -0.27344 -1.7139 s-0.11556 -1.1589 -0.1416 -1.7383 s-0.039063 -1.1426 -0.039063 -1.6895 c0 -0.25391 0.0048828 -0.56315 0.014648 -0.92773 s0.030928 -0.75521 0.063477 -1.1719 s0.081377 -0.83984 0.14648 -1.2695 s0.15463 -0.83333 0.26856 -1.2109 s0.25391 -0.71289 0.41992 -1.0059 s0.36946 -0.51106 0.61035 -0.6543 c0.11067 -0.058594 0.22461 -0.11556 0.3418 -0.1709 s0.24089 -0.083008 0.37109 -0.083008 c0.20183 0 0.30273 0.091143 0.30273 0.27344 z M42.853565625 18.6035 c-0.16927 0.24739 -0.37273 0.47852 -0.61036 0.69336 s-0.49805 0.40039 -0.78125 0.55664 s-0.57942 0.27995 -0.88867 0.37109 s-0.62012 0.13672 -0.93262 0.13672 c-0.44271 0 -0.85611 -0.056963 -1.2402 -0.1709 s-0.71939 -0.28809 -1.0059 -0.52246 s-0.51106 -0.52897 -0.67383 -0.88379 s-0.24414 -0.76985 -0.24414 -1.2451 c0 -0.46875 0.08626 -0.90657 0.25879 -1.3135 s0.41016 -0.76172 0.71289 -1.0645 s0.65918 -0.54199 1.0693 -0.71777 s0.84961 -0.26367 1.3184 -0.26367 c0.22136 0 0.42807 0.030928 0.62013 0.092773 s0.35971 0.15299 0.50294 0.27343 s0.25554 0.26855 0.33691 0.44434 s0.12207 0.37761 0.12207 0.60547 c0 0.27344 -0.055342 0.51433 -0.16602 0.72266 s-0.25716 0.39063 -0.43945 0.54688 s-0.389 0.28646 -0.62013 0.39063 s-0.47201 0.18881 -0.72267 0.25392 s-0.49805 0.1123 -0.74219 0.1416 s-0.46712 0.043945 -0.66895 0.043945 l-0.23438 0 c0.084639 0.59245 0.31901 1.0449 0.70313 1.3574 s0.91471 0.46875 1.5918 0.46875 c0.48177 0 0.95215 -0.084639 1.4111 -0.25391 s0.87402 -0.40364 1.2451 -0.70313 z M37.794965625 17.4023 l0.24417 -0.0000095367 c0.23438 0 0.47526 -0.037432 0.72266 -0.1123 s0.47037 -0.18555 0.66894 -0.33203 s0.36295 -0.32715 0.49315 -0.54199 s0.19531 -0.45898 0.19531 -0.73242 c0 -0.26692 -0.056963 -0.48828 -0.1709 -0.66406 s-0.31088 -0.26367 -0.59083 -0.26367 c-0.28646 0 -0.52896 0.08626 -0.72753 0.25879 s-0.3597 0.38412 -0.4834 0.63478 s-0.21322 0.51433 -0.26856 0.79102 s-0.083008 0.52246 -0.083008 0.7373 l0 0.22461 z M52.476515625 18.6035 c-0.1237 0.23438 -0.2555 0.45898 -0.39547 0.67383 s-0.29785 0.40364 -0.47363 0.56641 s-0.37435 0.29297 -0.5957 0.39063 s-0.47526 0.14648 -0.76172 0.14648 c-0.32552 0 -0.60547 -0.079756 -0.83984 -0.23926 s-0.43457 -0.37109 -0.60059 -0.63477 s-0.29948 -0.56478 -0.40039 -0.90332 s-0.18392 -0.68359 -0.24902 -1.0352 s-0.11394 -0.69824 -0.14648 -1.04 l-0.087891 -0.92285 c-0.1237 0.097656 -0.27344 0.28483 -0.44922 0.56152 s-0.35481 0.60059 -0.53711 0.97168 s-0.35645 0.77474 -0.52246 1.2109 s-0.3011 0.86589 -0.40527 1.2891 c-0.019531 0.091143 -0.050459 0.18555 -0.092773 0.2832 s-0.094395 0.18718 -0.15624 0.26855 s-0.13509 0.14974 -0.21973 0.20508 s-0.17904 0.083008 -0.28321 0.083008 c-0.16927 0 -0.29134 -0.058594 -0.36621 -0.17578 s-0.12858 -0.25065 -0.16113 -0.40039 c-0.1888 -0.82683 -0.32063 -1.6179 -0.39551 -2.373 s-0.1123 -1.5104 -0.1123 -2.2656 c0 -0.18229 0.030928 -0.34018 0.092773 -0.47364 s0.14485 -0.24414 0.24902 -0.33203 s0.22787 -0.153 0.3711 -0.19531 s0.29297 -0.063477 0.44922 -0.063477 l0.092773 0 l0.12207 0.014648 l0.097656 0.043945 l0.029297 0.078125 c-0.16927 0.85286 -0.25064 1.7204 -0.24413 2.6025 s0.05209 1.7302 0.13673 2.5439 c0.071611 -0.32552 0.1774 -0.69498 0.31737 -1.1084 s0.30273 -0.83008 0.48828 -1.25 s0.38737 -0.82031 0.60547 -1.2012 s0.44107 -0.70149 0.66894 -0.96191 c0.11067 -0.1237 0.22298 -0.22949 0.33691 -0.31738 s0.25554 -0.13184 0.4248 -0.13184 c0.097656 0 0.17903 0.019531 0.24414 0.058594 s0.11882 0.087891 0.16113 0.14648 s0.074863 0.12532 0.097646 0.2002 s0.040684 0.14812 0.053701 0.21973 c0.032549 0.1888 0.065098 0.43294 0.097646 0.73242 s0.073242 0.6185 0.12207 0.95704 s0.10905 0.67871 0.18066 1.0205 s0.16275 0.65104 0.27343 0.92773 s0.24414 0.50293 0.40039 0.67871 s0.3418 0.26367 0.55664 0.26367 c0.17578 0 0.34668 -0.03418 0.5127 -0.10254 s0.3239 -0.15625 0.47363 -0.26367 s0.28971 -0.23112 0.41991 -0.37109 s0.24739 -0.27832 0.35156 -0.41504 z M74.6870625 24.5313 c-0.22136 0.16276 -0.46068 0.27339 -0.71784 0.33198 s-0.51595 0.087891 -0.77637 0.087891 c-0.89192 0 -1.6846 -0.13184 -2.3779 -0.39551 s-1.3021 -0.62663 -1.8262 -1.0889 s-0.97006 -1.0059 -1.3379 -1.6309 s-0.67383 -1.2988 -0.91797 -2.0215 s-0.43132 -1.4778 -0.56152 -2.2656 s-0.2181 -1.5739 -0.26367 -2.3584 s-0.056973 -1.5527 -0.034189 -2.3047 s0.066729 -1.4502 0.13184 -2.0947 c-0.11719 0.17578 -0.26042 0.45573 -0.42969 0.83984 s-0.35645 0.83333 -0.56152 1.3477 s-0.41829 1.0759 -0.63965 1.6846 s-0.44108 1.2224 -0.65918 1.8408 s-0.42969 1.2256 -0.63477 1.8213 s-0.38737 1.1377 -0.54688 1.626 s-0.29622 0.90332 -0.41016 1.2451 s-0.18718 0.57129 -0.21973 0.68848 c-0.026045 0.078125 -0.060225 0.17578 -0.10254 0.29297 s-0.094395 0.23112 -0.15624 0.3418 s-0.13346 0.20508 -0.21483 0.2832 s-0.17415 0.11719 -0.27832 0.11719 c-0.11719 0 -0.21484 -0.047197 -0.29297 -0.1416 s-0.1416 -0.20671 -0.19043 -0.33691 s-0.087891 -0.26041 -0.11719 -0.39062 s-0.050459 -0.23438 -0.063477 -0.3125 c-0.039063 -0.27344 -0.074873 -0.61849 -0.10742 -1.0352 s-0.060215 -0.87891 -0.082998 -1.3867 s-0.040684 -1.0498 -0.053701 -1.626 s-0.024414 -1.1556 -0.03418 -1.7383 s-0.016279 -1.1556 -0.019531 -1.7188 s-0.0065041 -1.0905 -0.0097561 -1.582 s-0.0048828 -0.93262 -0.0048828 -1.3232 l0 -0.9375 c-0.14323 0.32552 -0.31413 0.73893 -0.5127 1.2402 s-0.41341 1.0645 -0.64453 1.6895 s-0.47201 1.2972 -0.72267 2.0166 s-0.49805 1.46 -0.74219 2.2217 s-0.47852 1.53 -0.70313 2.3047 s-0.4248 1.5267 -0.60059 2.2559 c-0.019531 0.065107 -0.043945 0.14486 -0.073242 0.23927 s-0.066729 0.18393 -0.1123 0.26856 s-0.10254 0.15788 -0.1709 0.21973 s-0.15137 0.092773 -0.24902 0.092773 c-0.091143 0 -0.17252 -0.029297 -0.24413 -0.087891 s-0.13184 -0.12858 -0.18066 -0.20996 s-0.087891 -0.16927 -0.11719 -0.26367 s-0.047197 -0.18066 -0.053711 -0.25879 c-0.032549 -0.16276 -0.060215 -0.3418 -0.082998 -0.53711 s-0.042314 -0.39551 -0.058594 -0.60059 s-0.030928 -0.4069 -0.043945 -0.60547 s-0.026035 -0.38248 -0.039053 -0.55175 c-0.071611 -0.89192 -0.12207 -1.7741 -0.15137 -2.6465 s-0.043945 -1.7513 -0.043945 -2.6367 c0 -0.87239 0.014648 -1.7383 0.043945 -2.5977 s0.073242 -1.7285 0.13184 -2.6074 c0.019531 -0.25391 0.048828 -0.53874 0.087891 -0.85449 s0.11556 -0.6136 0.22949 -0.89355 s0.27995 -0.51433 0.49805 -0.70313 s0.51595 -0.2832 0.89355 -0.2832 c0.091143 0 0.16927 0.021162 0.23438 0.063477 s0.097656 0.11556 0.097656 0.21973 l0 0.097656 c-0.058594 0.39063 -0.11719 0.77962 -0.17578 1.167 s-0.12044 0.78288 -0.18555 1.1865 c-0.15625 1.3021 -0.28809 2.6025 -0.39551 3.9014 s-0.16113 2.6058 -0.16113 3.9209 c0 0.51433 0.0097656 1.0222 0.029297 1.5234 s0.055342 1.0059 0.10742 1.5137 c0.44922 -1.3933 0.84473 -2.627 1.1865 -3.7012 s0.6429 -2.0149 0.90332 -2.8223 s0.48015 -1.4958 0.65918 -2.0654 s0.3304 -1.0466 0.4541 -1.4307 s0.22136 -0.69173 0.29297 -0.92285 s0.13021 -0.41016 0.17578 -0.53711 s0.078125 -0.21973 0.097656 -0.27832 s0.039063 -0.11067 0.058594 -0.15625 c0.097656 -0.22136 0.23112 -0.41992 0.40039 -0.5957 s0.38736 -0.26367 0.65429 -0.26367 c0.18229 0 0.33041 0.045576 0.44435 0.13672 s0.20346 0.20508 0.26856 0.3418 s0.10905 0.28646 0.13184 0.44922 s0.03418 0.3125 0.03418 0.44922 c-0.013018 1.0091 -0.042314 2.0068 -0.087891 2.9932 s-0.084639 1.9646 -0.11719 2.9346 s-0.047197 1.9336 -0.043945 2.8906 s0.047197 1.9108 0.13184 2.8613 c0.26042 -0.76823 0.50131 -1.4925 0.72267 -2.1729 s0.43132 -1.3298 0.62988 -1.9482 s0.39063 -1.2142 0.57617 -1.7871 s0.37761 -1.1394 0.57617 -1.6992 s0.40527 -1.1198 0.62012 -1.6797 s0.45247 -1.136 0.71289 -1.7285 c0.058594 -0.11719 0.1237 -0.23601 0.19531 -0.35645 s0.15299 -0.22949 0.24413 -0.32715 s0.19531 -0.17903 0.3125 -0.24414 s0.24739 -0.097656 0.39063 -0.097656 c0.20183 0 0.36133 0.065107 0.47852 0.19531 s0.20671 0.28646 0.26855 0.46875 s0.10254 0.37272 0.12207 0.57129 s0.029297 0.36621 0.029297 0.50293 c0 0.59896 -0.019531 1.2614 -0.058594 1.9873 s-0.066729 1.4795 -0.083008 2.2607 s-0.0081443 1.5723 0.024404 2.373 s0.12044 1.5755 0.26367 2.3242 s0.35482 1.4485 0.63478 2.0996 s0.65756 1.219 1.1328 1.7041 s1.0628 0.86752 1.7627 1.1475 s1.5413 0.41992 2.5244 0.41992 c0.14974 0 0.29459 -0.011396 0.43456 -0.03418 s0.27506 -0.063477 0.40526 -0.12207 z M77.0058125 17.1191 c0 0.45573 -0.074883 0.87893 -0.22462 1.2695 s-0.36133 0.72917 -0.63477 1.0156 s-0.60059 0.51106 -0.98145 0.67383 s-0.80241 0.24414 -1.2646 0.24414 c-0.41016 0 -0.77962 -0.076494 -1.1084 -0.22949 s-0.61035 -0.35971 -0.84473 -0.62013 s-0.41341 -0.56479 -0.53711 -0.9131 s-0.18555 -0.72104 -0.18555 -1.1182 c0 -0.33203 0.047197 -0.64778 0.1416 -0.94727 s0.22624 -0.5778 0.39551 -0.83496 s0.37109 -0.49479 0.60547 -0.71288 s0.48828 -0.41504 0.76172 -0.59082 l0.11719 0.087891 c-0.27344 0.31901 -0.48828 0.67058 -0.64453 1.0547 s-0.23438 0.79102 -0.23438 1.2207 c0 0.3125 0.047197 0.62988 0.1416 0.95215 s0.23275 0.61687 0.41505 0.88379 s0.41016 0.48502 0.68359 0.65429 s0.58594 0.25391 0.9375 0.25391 c0.22136 0 0.42969 -0.045576 0.625 -0.13672 s0.36621 -0.21484 0.5127 -0.37109 s0.26367 -0.33366 0.35156 -0.53223 s0.13184 -0.40527 0.13184 -0.62012 c0 -0.20833 -0.030928 -0.41178 -0.092773 -0.61034 s-0.14811 -0.38411 -0.25878 -0.55664 s-0.24414 -0.32878 -0.40039 -0.46875 s-0.32552 -0.25553 -0.50781 -0.34667 c-0.10417 -0.05208 -0.20346 -0.091143 -0.29786 -0.11719 s-0.19694 -0.055342 -0.30762 -0.087891 c-0.045576 -0.0065136 -0.094404 -0.01791 -0.14648 -0.034189 s-0.10091 -0.035811 -0.14648 -0.058594 s-0.084639 -0.053711 -0.11719 -0.092773 s-0.048828 -0.087891 -0.048828 -0.14648 c0 -0.11719 0.042314 -0.22461 0.12695 -0.32227 s0.18555 -0.18392 0.30273 -0.25879 s0.24089 -0.13347 0.37109 -0.17578 s0.24414 -0.063477 0.3418 -0.063477 c0.33203 0 0.625 0.084639 0.87891 0.25391 s0.4655 0.38411 0.63477 0.64453 s0.29622 0.54688 0.38086 0.85938 s0.12695 0.61198 0.12695 0.89844 z M85.47651875 14.2187 c0 0.33203 -0.040693 0.71291 -0.12207 1.1426 s-0.19693 0.87239 -0.34667 1.3281 s-0.32715 0.90332 -0.53223 1.3428 s-0.43294 0.83171 -0.68359 1.1768 s-0.51921 0.62337 -0.80566 0.83496 s-0.58268 0.31738 -0.88866 0.31738 c-0.1888 0 -0.36458 -0.087891 -0.52734 -0.26367 s-0.30762 -0.38411 -0.43457 -0.625 s-0.23601 -0.48503 -0.32715 -0.73242 s-0.16275 -0.43945 -0.21483 -0.57617 c-0.13672 -0.39063 -0.25716 -0.78125 -0.36133 -1.1719 s-0.20183 -0.78776 -0.29297 -1.1914 c-0.0065136 -0.026045 -0.016279 -0.076504 -0.029297 -0.15138 s-0.030918 -0.15137 -0.053701 -0.22949 s-0.048828 -0.14812 -0.078125 -0.20996 s-0.056963 -0.092773 -0.083008 -0.092773 c-0.058594 0 -0.12532 0.0097656 -0.2002 0.029297 s-0.14812 0.043945 -0.21973 0.073242 s-0.1416 0.060225 -0.20996 0.092773 s-0.12532 0.061846 -0.1709 0.087891 l-0.078125 -0.097656 c0.078125 -0.078125 0.18555 -0.16927 0.32227 -0.27344 s0.27995 -0.2002 0.42969 -0.28809 s0.30273 -0.16276 0.45898 -0.22461 s0.29297 -0.092773 0.41016 -0.092773 c0.15625 0 0.28809 0.066729 0.39551 0.2002 s0.20183 0.3125 0.2832 0.53711 s0.15625 0.48991 0.22461 0.7959 s0.1416 0.62825 0.21973 0.9668 l0.078125 0.3125 l0.14648 0.54199 l0.19043 0.64941 l0.21484 0.62012 l0.21973 0.46387 l0.20508 0.18555 c0.18229 0 0.35319 -0.066729 0.5127 -0.2002 s0.30924 -0.31088 0.44921 -0.53224 s0.26529 -0.47038 0.37597 -0.74707 s0.20508 -0.55826 0.2832 -0.84472 s0.13835 -0.56314 0.18066 -0.83007 s0.063477 -0.5013 0.063477 -0.70313 c0 -0.37761 -0.039063 -0.75358 -0.11719 -1.1279 s-0.2002 -0.70638 -0.36621 -0.99609 s-0.37761 -0.51596 -0.63477 -0.67872 s-0.56152 -0.21811 -0.91309 -0.16603 l-0.029297 -0.087891 c0.20183 -0.084639 0.4069 -0.14975 0.61523 -0.19532 s0.41666 -0.068359 0.62499 -0.068359 c0.55989 0 1.0026 0.13997 1.3281 0.41992 s0.48828 0.70639 0.48828 1.2793 z M90.1093375 12.1191 c0 0.13021 -0.029287 0.26041 -0.087881 0.39062 s-0.13509 0.24576 -0.22949 0.34667 s-0.20346 0.18392 -0.32716 0.24902 s-0.25065 0.097656 -0.38086 0.097656 c-0.16927 0 -0.30436 -0.055342 -0.40526 -0.16602 s-0.15137 -0.25064 -0.15137 -0.41991 c0 -0.13021 0.029297 -0.25879 0.087891 -0.38574 s0.13509 -0.23926 0.22949 -0.33691 s0.20183 -0.17741 0.32227 -0.23926 s0.24576 -0.092773 0.37597 -0.092773 c0.16927 0 0.30599 0.05208 0.41016 0.15625 s0.15625 0.23764 0.15625 0.4004 z M92.8437375 18.6035 c-0.14974 0.24739 -0.32715 0.47361 -0.53223 0.67869 s-0.42969 0.38411 -0.67383 0.53711 s-0.50456 0.27182 -0.78125 0.35646 s-0.56152 0.12695 -0.85449 0.12695 c-0.36458 0 -0.68848 -0.061846 -0.97168 -0.18555 s-0.52083 -0.2946 -0.71289 -0.5127 s-0.33854 -0.47525 -0.43945 -0.77147 s-0.15137 -0.62012 -0.15137 -0.97168 c0 -0.37761 0.055342 -0.73568 0.16602 -1.0742 s0.26367 -0.65593 0.45898 -0.95215 s0.4248 -0.56803 0.68848 -0.81542 s0.54524 -0.46875 0.84473 -0.66406 l0.11719 0.087891 c-0.31901 0.37761 -0.5778 0.80078 -0.77637 1.2695 s-0.29785 0.95703 -0.29785 1.4648 c0 0.29297 0.03418 0.57454 0.10254 0.84473 s0.17578 0.50944 0.32227 0.71777 s0.33366 0.37435 0.56152 0.49805 s0.50455 0.18555 0.83007 0.18555 c0.38411 0 0.75032 -0.081377 1.0986 -0.24414 s0.66244 -0.36784 0.94239 -0.61523 z M100.25005 18.6035 c-0.16927 0.24739 -0.37273 0.47852 -0.61036 0.69336 s-0.49805 0.40039 -0.78125 0.55664 s-0.57942 0.27995 -0.88867 0.37109 s-0.62012 0.13672 -0.93262 0.13672 c-0.44271 0 -0.85611 -0.056963 -1.2402 -0.1709 s-0.71939 -0.28809 -1.0059 -0.52246 s-0.51106 -0.52897 -0.67383 -0.88379 s-0.24414 -0.76985 -0.24414 -1.2451 c0 -0.46875 0.08626 -0.90657 0.25879 -1.3135 s0.41016 -0.76172 0.71289 -1.0645 s0.65918 -0.54199 1.0693 -0.71777 s0.84961 -0.26367 1.3184 -0.26367 c0.22136 0 0.42807 0.030928 0.62013 0.092773 s0.35971 0.15299 0.50294 0.27343 s0.25554 0.26855 0.33691 0.44434 s0.12207 0.37761 0.12207 0.60547 c0 0.27344 -0.055342 0.51433 -0.16602 0.72266 s-0.25716 0.39063 -0.43945 0.54688 s-0.389 0.28646 -0.62013 0.39063 s-0.47201 0.18881 -0.72267 0.25392 s-0.49805 0.1123 -0.74219 0.1416 s-0.46712 0.043945 -0.66895 0.043945 l-0.23438 0 c0.084639 0.59245 0.31901 1.0449 0.70313 1.3574 s0.91471 0.46875 1.5918 0.46875 c0.48177 0 0.95215 -0.084639 1.4111 -0.25391 s0.87402 -0.40364 1.2451 -0.70313 z M95.19145 17.4023 l0.24417 -0.0000095367 c0.23438 0 0.47526 -0.037432 0.72266 -0.1123 s0.47037 -0.18555 0.66894 -0.33203 s0.36295 -0.32715 0.49315 -0.54199 s0.19531 -0.45898 0.19531 -0.73242 c0 -0.26692 -0.056963 -0.48828 -0.1709 -0.66406 s-0.31088 -0.26367 -0.59083 -0.26367 c-0.28646 0 -0.52896 0.08626 -0.72753 0.25879 s-0.3597 0.38412 -0.4834 0.63478 s-0.21322 0.51433 -0.26856 0.79102 s-0.083008 0.52246 -0.083008 0.7373 l0 0.22461 z"></path></g></svg>