<svg xmlns="http://www.w3.org/2000/svg" width= "200px" height= "200px" viewBox="0 0 312.5 317.625"><defs><linearGradient id="a" x1="0%" y1="0%" x2="100%" y2="100%"><stop stop-color="#905e26" offset="0"/><stop stop-color="#f5ec9b" offset=".5"/><stop stop-color="#905e26" offset="1"/></linearGradient></defs><g data-featurekey="rootContainer" transform="scale(1.67985)" fill="url(#a)"><path xmlns="http://www.w3.org/2000/svg" d="M22.657 154.94a91 91 0 0 0 5.861 6.251c6.914 6.805 15.159 12.525 24.004 16.851 3.259 1.526 6.265 3.107 9.787 4.468.88.338 1.779.7 2.724 1.026.953.302 1.941.604 2.974.903 1.027.321 2.122.549 3.267.786 1.146.23 2.336.493 3.614.624a91.2 91.2 0 0 1-18.434-5.99 94 94 0 0 1-16.873-9.842c-10.548-7.727-19.57-17.648-26.16-28.989-.272-.339-.685-.985-1.18-1.808l-.796-1.348-.803-1.551c-.534-1.076-1.149-2.168-1.62-3.226a71 71 0 0 0-1.326-2.748c2.048 5.101 4.412 9.563 7.059 13.806a94 94 0 0 0 3.869 5.697c-.192-.259-.392-.511-.583-.771a95 95 0 0 0 4.6 5.841zm-4.618-5.862-.125-.17zM1.335 106.042l-.483-3.875c.256 2.365.553 5.008 1.096 7.654l-.327-1.879a24 24 0 0 1-.286-1.9m84.477 79.533c6.652.673 13.628.472 20.461-.609 6.837-1.077 13.524-2.987 19.741-5.449-11.45 4.503-23.602 6.506-35.49 6.171-1.591-.025-3.159 0-4.712-.113"/><path xmlns="http://www.w3.org/2000/svg" d="m46.426 171.967-.259-.165zm9.651 5.317A84 84 0 0 0 73.2 183.1c-9.688-2.21-18.805-6.109-26.774-11.133 3.06 1.947 6.277 3.749 9.651 5.317m120.925-70.19c.098-1.58.296-3.238.346-4.027.594-5.071.77-9.401.745-13.745-.11-.783-.425-2.25-.55-3.918-.153-1.672-.378-3.309-.568-4.924-.289-1.601-.538-3.186-.854-4.74 2.275 11.617 2.237 23.279.144 34.282a95 95 0 0 1 .737-2.928"/><path xmlns="http://www.w3.org/2000/svg" d="M.887 83.482c.848-6.9 2.653-13.626 4.37-18.107l-.695 3.28c.429-.961 1.122-3.194 2.067-5.557l.682-1.802.753-1.747c.5-1.131.92-2.203 1.363-3.025-.303.771-.595 1.602-.947 2.436-.345.837-.732 1.687-1.101 2.542l1.514-3.409A112 112 0 0 0 4.954 69.8c-1.133 4.352-2.029 8.926-2.511 13.032-.14 1.024-.189 2.024-.28 2.978-.067.954-.183 1.864-.192 2.724-.042 1.719-.1 3.224-.071 4.428.105 2.409.25 3.61.459 2.939.411-1.333.403-8.188 1.837-16.767.767-4.276 1.868-8.966 3.362-13.561 1.483-4.599 3.427-9.058 5.44-12.992l-.592 1.292-.545 1.331-1.116 2.691-1.024 2.78-.521 1.402-.461 1.434c-1.32 3.807-2.307 7.816-3.167 11.857l-.559 3.052c-.205 1.014-.292 2.046-.444 3.067-.318 2.041-.434 4.097-.611 6.129-.199 4.074-.239 8.098.13 11.946-.015-.914-.03-1.726-.017-2.512l.115-2.355c.048-.809.039-1.667.115-2.65.07-.983.134-2.091.19-3.402.391-6.608 1.572-13.15 3.408-19.481 1.75-6.358 3.814-11.957 6.889-17.03l.801-1.526c.542-1.024.993-2.034 1.566-3.064.653-1.13 1.278-1.976 1.784-2.751.521-.767.963-1.441 1.469-2.095l3.682-5.082c.075-.009-.022.185-.2.473a29 29 0 0 1 1.959-2.49c.755-.875 1.488-1.803 2.109-2.569.146-.007.288-.011.623-.251 8.65-9.197 19.295-16.692 31.291-21.417l2.667-1.039 2.7-.899 1.343-.448 1.36-.38 2.71-.753c1.55-.373 3.12-.751 4.721-1.091l2.437-.426c.819-.141 1.642-.3 2.484-.378 1.674-.201 3.134-.625 3.921-.729 4.369-.249 8.73-.199 13.849.216.397.007 1.015.043 1.732.082.717.041 1.537.061 2.332.134.932.21 1.927.418 2.971.621 6.369.988 12.527 2.754 18.386 5.103l-.007-.028 2.244.894 2.29 1.058c1.571.684 3.11 1.559 4.7 2.383.798.407 1.554.904 2.338 1.354.77.474 1.576.894 2.32 1.412 1.508 1.002 3.037 1.961 4.446 3.032a100 100 0 0 1 6.6 5.198l.14.122.042.038 1.457 1.322 1.394 1.391 1.395 1.392c.462.467.89.967 1.337 1.449-.216-.35-.208-.491-.2-.63-.689-.66-1.504-1.441-2.309-2.21 1.343 1.222 2.515 2.327 3.477 3.229.371.474.776.94 1.16 1.449l1.186 1.566 1.261 1.629 1.255 1.752c2.226 2.838 4.191 5.874 6.057 8.97.864 1.588 1.817 3.131 2.586 4.774l1.213 2.436 1.092 2.497c.314.533.192.022.231-.068 1.225 2.962 2.21 6.042 3.102 9.146a88 88 0 0 1 3.408 17.211c.225 1.378.321 2.772.52 4.153l-.123 2.924c-.001 1.103.057 2.206.01 3.311l-.128 3.326c-.016.75-.124 1.569-.187 2.459-.084.888-.128 1.846-.256 2.856l-.412 3.192c-.132 1.119-.387 2.269-.583 3.471a90.6 90.6 0 0 1-4.312 15.482c-.242.826-.427 1.486-.592 1.855-.627 1.501-1.296 2.954-1.942 4.385-.723 1.394-1.386 2.788-2.127 4.108a86 86 0 0 1-7.949 12.379c-.336.439-.649.885-.987 1.297l-.998 1.206c-.66.779-1.25 1.558-1.876 2.234-1.251 1.352-2.301 2.606-3.286 3.549-1.128 1.178-1.027 1.233-.246.665a35 35 0 0 0 1.608-1.262l2.122-1.914c.776-.677 1.519-1.441 2.235-2.161.708-.725 1.416-1.386 1.962-1.984 1.101-1.191 1.824-1.926 1.67-1.599-1.777 3.345-5.013 7.471-9.743 12.035-2.413 2.227-5.128 4.647-8.339 6.98-1.566 1.221-3.307 2.338-5.082 3.558-1.834 1.123-3.708 2.353-5.757 3.445-4.484 2.442 3.365-1.475 3.577-1.512a23 23 0 0 1-2.377 1.64c-1.478.786-2.943 1.597-4.474 2.273-.895.411-1.774.855-2.679 1.239l-2.729 1.122 1.444-.568c2.952-1.173 5.711-2.555 8.202-3.922-.936.566-1.96 1.221-3.082 1.812-1.203.622-2.448 1.302-3.697 1.909l-3.625 1.686c12.968-4.711 24.885-12.507 34.319-22.67 4.723-5.066 8.935-10.631 12.369-16.651a94 94 0 0 0 8.288-18.999c-3.154 9.93-8.071 19.052-13.981 26.765 10.744-14.507 17.15-32.293 17.999-50.636-.001 1.011-.101 2.018-.168 3.025-.083 1.007-.123 2.018-.241 3.022-.257 2.005-.441 4.021-.827 6.009-.624 4-1.636 7.931-2.782 11.815 2.262-7.021 3.613-14.424 4.145-21.869.554-7.451.092-14.947-1.057-22.211 1.974 9.622 2.301 20.524.619 31.298 1.182-6.949 1.482-14.112 1.028-21.214-.102-2.713-.422-5.407-.685-7.901-.377-2.476-.662-4.762-1.027-6.611 1.445 6.826 2.015 12.648 2.293 18.136-.267-11.977-2.748-24.112-7.62-35.511 2.659 6.191 4.842 12.851 6.175 19.698 1.34 6.84 1.897 13.838 1.58 20.57-.015-.788.018-1.575-.028-2.366l-.107-2.391c.287 10.85-1.384 21.604-4.696 31.717-1.662 5.056-3.715 9.969-6.2 14.644a95.5 95.5 0 0 1-8.56 13.316c3.673-4.29 7.551-10.354 10.646-17.015 3.081-6.675 5.368-13.894 6.941-20.199-2.314 11.322-6.907 22.494-13.571 32.471-6.646 9.985-15.351 18.764-25.423 25.502-10.06 6.759-21.474 11.437-33.187 13.748a94.6 94.6 0 0 1-17.657 1.809 94.5 94.5 0 0 1-17.361-1.515l3.005.571c1.002.19 2.018.295 3.026.445 2.016.324 4.055.446 6.087.633 4.073.229 8.168.306 12.25-.005 4.089-.217 8.152-.827 12.196-1.572 2.006-.456 4.036-.829 6.017-1.414.994-.278 2-.521 2.987-.83l2.955-.958c-1.492.462-3.062 1.074-4.739 1.523l-2.101.618a92 92 0 0 0 12.91-4.496 90 90 0 0 0 5.651-2.705 97 97 0 0 1-10.714 4.872 98.4 98.4 0 0 1-21.66 5.382c-1.11.176-2.122.231-3.029.326l-2.428.24c-1.429.113-2.484.164-3.222.245-1.477.147-1.687.284-1.099.397.587.113 1.971.203 3.673.251 1.697-.01 3.71-.101 5.541-.268 18.397-1.887 35.288-9.107 48.824-19.916 13.545-10.811 23.919-25.172 29.701-41.467.363-.946.642-1.922.944-2.89.293-.971.617-1.932.882-2.912.491-1.97 1.072-3.917 1.448-5.917l.619-2.985.487-3.012.241-1.507.172-1.517.342-3.034c.698-8.114.422-16.315-.812-24.363-.66-4.554-1.82-9.961-3.315-14.777l-1.15-3.484c-.4-1.107-.825-2.151-1.203-3.133l-.557-1.415-.571-1.271-.981-2.124c-3.134-6.359-7.072-12.424-11.682-18.065-4.605-5.643-9.896-10.868-15.861-15.418l-2.244-1.703-2.327-1.608-1.166-.806-1.203-.756-2.417-1.508c-3.295-1.904-6.67-3.739-10.228-5.261-3.521-1.598-7.206-2.895-10.957-4.055-1.895-.52-3.781-1.1-5.724-1.499-.968-.209-1.928-.463-2.907-.638l-2.944-.521C100.363.01 93.04-.285 85.724.265 78.412.83 71.069 2.218 64.028 4.614l-2.635.913c-.881.297-1.73.682-2.597 1.019-.858.359-1.735.673-2.577 1.069l-2.532 1.173c-.852.376-1.675.808-2.496 1.245l-2.469 1.297-2.402 1.412c-.8.472-1.606.933-2.372 1.458l-2.324 1.528c-.782.497-1.506 1.078-2.261 1.612-.741.554-1.51 1.07-2.226 1.654l-2.157 1.737c-.729.565-1.417 1.178-2.103 1.792l-2.063 1.83-1.971 1.919c-.656.639-1.319 1.271-1.93 1.951-5.031 5.298-9.451 11.078-13.066 17.194A99.5 99.5 0 0 0 5.18 64.379C.805 77.299-.45 90.402.134 102.237c-.126-4.872-.147-11.859.753-18.755m141.132 90.446a97 97 0 0 0 8.765-6.389c-2.84 2.339-5.758 4.499-8.765 6.389m40.217-54.282c-.299.901-.552 1.791-.882 2.641l-.957 2.523-.466 1.248-.513 1.231a109 109 0 0 0-.997 2.501 97 97 0 0 1-6.587 13.35c-2.521 4.275-5.443 8.281-8.565 12.04-1.542 1.899-3.222 3.66-4.874 5.421l-2.581 2.523c-.847.848-1.774 1.604-2.652 2.404q-1.104.959-2.225 1.882a91 91 0 0 0 7.896-7.312 90 90 0 0 1-11.689 10.188c-1.036.722-2.037 1.496-3.113 2.176l-3.247 2.069-3.43 1.949c-1.167.648-2.399 1.224-3.634 1.855a74 74 0 0 1 2.685-1.508c1.021-.567 2.092-1.237 3.138-1.85 1.054-.601 2.012-1.261 2.808-1.813s1.42-1.01 1.745-1.306c-.464.315-.936.617-1.406.924a93 93 0 0 0 1.507-1.015c-.021.023-.065.059-.101.091 10.932-7.466 20.245-17.277 27.223-28.462 7.009-11.175 11.57-23.781 13.46-36.601-.41 5.142-1.352 9.248-2.543 12.851m-15.102-78.05a92.4 92.4 0 0 1 7.773 14.352c.25.549.486 1.106.719 1.664 4.963 12.154 7.221 25.192 6.89 38.036.084-4.25-.198-8.498-.669-12.71-.533-4.854-1.518-9.65-2.824-14.341-2.562-9.407-6.723-18.323-12.005-26.451.485.67.996 1.396 1.525 2.166a33 33 0 0 1 1.59 2.463l-.638-1.109-.689-1.079-1.378-2.156c-.938-1.424-1.955-2.796-2.934-4.192-1.062-1.334-2.069-2.712-3.174-4.011-.836-.953-1.637-1.938-2.485-2.879 2.992 3.155 5.801 6.54 8.299 10.247M96.886 1.152c1.467.078 2.937.221 4.407.331 1.204.101 2.402.279 3.588.413.356.015.732.039 1.204.092.471.065 1.034.186 1.769.354 5.469.912 10.459 2.283 14.001 3.699 6.798 2.573 13.123 5.774 18.86 9.471 5.739 3.69 10.889 7.887 15.246 12.471 2.008 2.179 1.422 1.704.315.646l1.662 1.764c-.736-.734-1.459-1.478-2.206-2.196l-2.301-2.09c.56.49 1.918 1.663 2.845 2.522-7.389-7.539-16.026-13.799-25.375-18.404-9.356-4.603-19.431-7.446-29.502-8.581 1.618.18 2.412.22 3.168.24-1.085-.127-2.173-.301-3.274-.401-1.479-.097-2.955-.229-4.423-.301l-4.36-.103c1.444-.001 2.907.039 4.376.073"/><path xmlns="http://www.w3.org/2000/svg" d="m115.942 184.69.426-.125c-.446.12-.885.252-1.334.366.304-.076.609-.15.908-.241m44.482-38.539c4.235-5.587 7.977-12.263 10.366-18.014l-.029.006c-6.061 14.322-15.892 26.66-28.16 35.744a159 159 0 0 0 6.418-4.703c2.698-2.82 7.213-7.406 11.405-13.033M35.35 162.846c7.172 6.412 15.821 11.992 25.448 15.751 3.754 1.413 7.585 2.651 11.503 3.523 1.944.502 3.929.812 5.899 1.181.987.175 1.987.272 2.979.412.994.129 1.986.275 2.987.333-4.519-.501-9.005-1.251-13.372-2.44-4.364-1.185-8.642-2.65-12.769-4.449a97 97 0 0 1-11.894-6.314c-3.786-2.408-7.376-5.097-10.781-7.997m88.527 11.431-2.219.871-2.266.756c-1.5.54-3.047.944-4.59 1.373 1.551-.39 3.111-.754 4.624-1.254l2.283-.698 2.23-.815c-.086-.044-.594.055-.062-.233m-26.194 5.688c-1.16.099-2.326.09-3.494.102-1.168.014-2.338.039-3.509-.038l1.576.148q.725.046 1.295.113c1.381-.118 2.752-.151 4.132-.325m-46.242-10.756c1.341.787 2.765 1.48 4.178 2.244.354.194.996.415 1.801.709-1.721-.739-3.37-1.655-5.046-2.505-.83-.441-1.629-.935-2.443-1.395-.812-.464-1.621-.927-2.389-1.445l.937.626.977.584z"/></g><g xmlns="http://www.w3.org/2000/svg" data-featurekey="symbolFeature-0" transform="translate(113.935 65.577)scale(1.68258)" fill="url(#a)"><path d="M34.34 36.199c-3.404 4.441-8.65 7.291-14.527 7.291-10.265 0-18.586-8.623-18.586-19.242 0-10.617 8.321-19.242 18.586-19.242 10.24 0 18.562 8.625 18.562 19.242 0 2.65-.529 5.172-1.463 7.492M19.487 9.113a3.887 3.887 0 0 0 0 7.772A3.884 3.884 0 0 0 23.368 13a3.885 3.885 0 0 0-3.881-3.887m9.605 5.223a3.89 3.89 0 0 0-3.882 3.887 3.886 3.886 0 0 0 7.771 0 3.89 3.89 0 0 0-3.889-3.887m.178 11.098a3.885 3.885 0 0 0 0 7.77c2.145 0 3.887-1.74 3.887-3.885s-1.743-3.885-3.887-3.885m-9.204 6.179a3.883 3.883 0 1 0 0 7.766 3.885 3.885 0 0 0 3.884-3.883 3.887 3.887 0 0 0-3.884-3.883m-9.231-5.144c-2.145 0-3.887 1.738-3.887 3.883s1.742 3.885 3.887 3.885a3.884 3.884 0 0 0 0-7.768m-.506-11.274a3.883 3.883 0 1 0 .002 7.766 3.883 3.883 0 0 0-.002-7.766m9.742 7.567a1.43 1.43 0 0 0-1.419 1.41c0 .783.636 1.412 1.419 1.412.757 0 1.388-.629 1.388-1.412-.001-.756-.631-1.41-1.388-1.41M19.813 7.02c-9.179 0-16.645 7.721-16.645 17.229 0 9.51 7.466 17.227 16.645 17.227 9.181 0 16.621-7.717 16.621-17.227 0-9.509-7.44-17.229-16.621-17.229m17.269 25.99s2.145 4.723 6.967 1.023c-1.719 3.012-2.945 4.34-5.105 8.174-4.637 1.588-6.176-1.488-6.32-3.113 2.511-1.506 4.458-6.084 4.458-6.084m2.867 8.861s4.191.1 3.625 3.123l5.199-8.031s-.473-4.824-4.066-2.646z"/><path d="M36.76 33.773c.322-.764 3.869-6.316 1.607-15.35 0 0 4.613 5.904 2.039 17.49-.322-.104-1.396 2.684-1.826 2.365-.43-.323-1.82-4.505-1.82-4.505"/></g><path d="M32.16 39.68q0-1.24.24-3 .12-.92.48-3.16.28-1.52.4-2.4.56-3.84.2-6.2-.48-3.12-2.6-4.96-1.12-1.04-2.4-1.28-1.56-.36-3.48.44-1.32.52-3.56 2l-.36.24q-.36.24-.48.28l-.84.56q-.32.2-.52-.16-.16-.08-.2-.24-.36-1.84-1.76-2.52-1.24-.6-3.12-.32-1.68.28-3.36 1.22T8.28 22.2q-.2.32-.56.12-.2-.2-.12-.44v-.04q-.48-2.24-1.4-2.56-.44-.12-1.36-.04-.36.04-1 .16-.56.08-.96.16-.12 3.12-.12 10.28.04 4.16.12 6.68Q2.92 38 3 38.8q.04.44.08.68l.04.16.04.04q.04.04.12.08.2.04.52.08.64.12 1.6.08 2-.08 2.56-.4v-.04q0-.8-.12-2.24v-.32q-.16-1.96-.16-2.96-.04-1.4 0-2.84.12-2.12.44-3.8.44-2.2 1.24-3.44 1.04-1.56 2.6-1.56.8 0 1.52.64.56.52.88 1.28 1.16 2.84 1.04 8.44 0 1.16-.12 3.28-.12 2.72-.12 3.72 2.88.28 4.76-.04 0-.68-.08-2.36-.12-2.36-.12-3.6-.08-4.32.68-7.08.28-1.04 1.12-1.96t1.88-1.32q1.2-.52 2.18-.02t1.38 1.94q.84 3 .72 8l-.12 2.72q-.12 2.72-.12 3.88.04.04.32.04h2.08q1.2 0 1.88-.08.28-.04.44-.12M2.44 18.8l1.28-.2q.64-.08 1.04-.12 1.08-.12 1.68.04 1.28.4 1.8 2.56 1.04-1.04 2.62-1.84t3.18-1.08q2.16-.32 3.6.4 1.6.8 2.08 2.72.2-.16.48-.32.08-.04.44-.28t.4-.24q2.28-1.48 3.64-2.04 2.16-.88 3.96-.52 1.48.32 2.8 1.48 2.28 2.04 2.8 5.44.4 2.48-.16 6.44-.12.88-.4 2.4-.36 2.24-.48 3.16-.2 1.6-.24 2.76.12.08.12.24 0 .24-.2.44-.12.08-.32.16-.24.12-.72.2-.72.08-2 .08h-2.1l-.34-.04h-.32q-.4.04-.4-.36v-.08q-.04-.08-.04-.16 0-1.32.12-4.12.08-1.76.12-2.68.12-4.92-.68-7.8-.32-1.12-1.04-1.44-.64-.28-1.48.06t-1.56 1.12-.92 1.62q-.76 2.68-.68 6.88 0 1.24.12 3.56.08 1.76.12 2.56 0 .16-.12.28-.04.24-.32.28-2.12.44-5.44.12-.16-.04-.28-.16-.24-.12-.24-.4 0-1.16.12-4 .12-2.08.12-3.24.12-5.44-1-8.12-.24-.64-.7-1.04t-.94-.4q-2.16 0-3.04 4.36-.56 2.8-.44 6.44 0 1 .16 2.92v.32q.12 1.6.16 2.52 0 .36-.32.44-.08.04-.12.08-.72.44-2.96.52-2.4.08-2.92-.6-.2-.2-.28-1.24-.08-.84-.12-2.32-.08-2.52-.12-6.72 0-8.16.12-10.52 0-.08.04-.16.04-.32.32-.36m44.337.96q-3.52 1.4-5.12 4.8-1.72 3.64-.68 7.94t4.16 6.54q3.44 2.44 8 1 5-1.56 6.8-5.64 1.64-3.64.24-7.76-1.36-4.12-4.8-6.16-3.8-2.24-8.36-.72zm1.36-1.12q4.16-.92 7.64 1.16 3.72 2.2 5.16 6.6 1.48 4.4-.28 8.36-1.96 4.36-7.28 6.08-4.96 1.56-8.72-1.16-3.36-2.4-4.48-7-1.08-4.56.76-8.48 2.04-4.32 6.92-5.6.16-.04.28.04m2.12 7.72q-1.32-.16-2.2.68-.88.88-1 2.48-.12 1.56.64 2.72.76 1.24 2.16 1.36 1.88.12 2.84-1 .92-.96.84-2.48-.12-1.56-1.12-2.64-.88-.92-2.16-1.12m.12-.8q.24 0 .52.08.08 0 .16.08 1.12.36 1.96 1.2 1.2 1.32 1.28 3.12.12 1.88-1 3.12-1.24 1.36-3.48 1.24-1.8-.12-2.8-1.72-.88-1.4-.76-3.24.12-1.88 1.28-2.96.72-.72 1.72-.88.12-.12.28-.12.44 0 .84.08m22.817 13.52q.48.6 1.36.84.76.16 2.12.12.24 0 .68-.04.8-.04 1.16-.04 1.32-2.24 2.56-5.32.84-2.04 2.08-5.76.08-.2.16-.44 0-.04.06-.24t.1-.24q1.72-5.08 2.8-7.56l.08-.16q.04-.12.12-.3t.12-.26q0-.04.04-.08.08-.2.12-.32h-.32q-.72 0-1.8.04-1.08.08-1.88.12-.84.08-.96.12 0 .04-.04.08-.08.04-.16.16-.2.28-.4.72-.36.88-.84 2.44-.32 1.12-.84 3l-.12.52q-.16.52-.3 1.08t-.18.76q-.36 1.32-.6 2.12-.68 2.2-1.2 2.44-.16.08-.32 0-.08 0-.16-.08-.04-.04-.04-.08-.04-.04-.06-.1t-.06-.14q-.04-.16-.12-.44-.04-.2-.12-.44 0-.08-.04-.16v-.08q-.36-1.36-1.04-3.16-.4-1-2.04-4.72-.8-1.84-1.28-2.92-.32-.6-.48-.92l-.12-.24q-.72-.24-2.52-.08-.6.04-1.4.16-.04 0-.22.04t-.42.06-.4.06q.36 2.68 2.9 9.8t4.02 9.64m-7.4-20.2q.08 0 .4-.04l.64-.08.36-.08q.84-.08 1.44-.16 2.08-.2 3 .16.16.08.28.28.04.12.16.32l.48.96q.48 1.08 1.32 2.92 1.64 3.72 2.04 4.76.68 1.84 1.04 3.24 0 .04.04.08 0 .08.04.16 0 .08.04.16.2-.48.48-1.36.24-.8.56-2.08.08-.2.22-.76t.26-1.08l.16-.52q.52-1.92.84-3.04.48-1.6.88-2.52.52-1.16 1.04-1.36.4-.16 3.08-.32 1.08-.04 1.84-.04h.64q.12 0 .2.04.24.04.36.16.08.16.08.32 0 .08-.04.12 0 .08-.08.24-.08.2-.24.56 0 .04-.04.08-.04.08-.12.26t-.12.3l-.08.16q-1.08 2.44-2.76 7.48-.04.04-.1.24t-.06.24q-.08.28-.16.48-1.28 3.72-2.08 5.8-1.28 3.12-2.64 5.4-.04.08-.12.12-.08.28-.36.28-.4 0-1.32.04-.44.04-.68.04-1.48.08-2.32-.16-1.12-.24-1.76-1.04l-.08-.08q0-.04-.04-.04 0-.04-.04-.08t-.04-.12q-1.64-2.84-4.22-10.18t-2.78-9.74v-.04q-.04-.4.36-.48m33.457-7q-.32-.12-.88-.08-.48 0-1.44.16h-.16q-.84.16-1.2.2-.44.04-.76 0-.04.16-.06.38t-.06.38-.04.2q-.08.6-.12 1-.08.92.08 1.36.32.92 2.6.92.16 0 .68.04h.56q.68.04 1-.08 0-.2.04-.56 0-.68-.04-1.68 0-1-.08-1.64-.04-.36-.12-.56zm-4.44-.48q.48 0 1.84-.2.08-.04.12-.04 1.04-.16 1.56-.16.88-.04 1.36.2.16.08.28.28l.08.24q.04.24.08.64.12.72.12 1.76.04.96.04 1.72-.04.4-.08.6 0 .16-.04.24-.04.24-.2.32-.44.28-1.56.24h-.56q-.52-.04-.64-.04-2.84 0-3.36-1.44-.2-.64-.12-1.72.04-.4.16-1.04 0-.04.08-.56t.08-.64q.04-.12.04-.24.04-.4.44-.36.2.04.28.2m-.16 7.84q-.16 1.72-.04 10.52.04 4 .16 6.64.12 2.88.24 3.32 0 .04.04.04.08.04.28.04.4.08 1.08 0 .36 0 .8-.08l.2-.04q.24 0 .46-.02t.26-.02h.76q.4.04.56-.04v-.16q-.04-.2.08-.32.44-3.12.28-10.2-.08-3.64-.32-6.12-.28-2.68-.68-3.24v-.04q-.08 0-.12-.04-.2-.08-.48-.12-.56-.08-1.44-.12-.4-.04-.88-.04h-.58l-.18-.04h-.48zm-.16-.88h.64q.04.04.2.04h.56q.52 0 .92.04.92.04 1.52.12.88.16 1.12.48.52.72.84 3.68.24 2.52.32 6.16.16 7.68-.36 10.64.04.56-.44.8-.32.16-.96.12h-.78l-.22.02-.24.04-.2.02h-.12q-.44.08-.8.08-.76.08-1.24 0-.32-.04-.52-.12-.32-.12-.44-.4-.36-.96-.48-10.32-.12-8.84.04-10.6.04-.2.2-.32-.04-.08 0-.16.04-.4.44-.32m22.857 9.6q.08-.16-.08-.52-.2-.52-.72-1.16-1.12-1.44-2.5-2.24t-1.9-.2q-.8.84-.16 4.04.12 0 .2.04.52.04.96.08.84.04 1.56.08 1.2.08 1.92 0 .4 0 .64-.08.04 0 .08-.04m-6.04.36q-.08-.08-.08-.16-.76-3.68.32-4.84.52-.6 1.4-.52.68.08 1.52.56 1.52.84 2.72 2.44 1.36 1.72.84 2.6-.12.28-.56.4-.32.04-.8.08-.76.08-2 0-.72-.04-1.56-.08-.48-.04-1-.12h-.16l-.2-.04h-.08q-.32 0-.36-.32m.24 2.8q2.24.12 5.36.08 1.04 0 3.16-.04 2.92-.08 4.36-.08-1.08-5.16-4.48-8.12-3.2-2.76-6.96-2.52-3.84.28-5.96 3.48-2.44 3.6-1.64 9.64.52 3.6 3.32 5.64 2.56 1.84 6.08 1.88 3.48.04 6.12-1.6 2.64-1.72 3.24-4.52-3.28-.68-4.96-1.12-.88 2-2.16 2.92t-2.68.48q-1.36-.4-2.28-1.86t-1.16-3.58q-.04-.32.24-.4.08-.28.4-.28m7.68 1.88q1.8.52 5.36 1.24.16 0 .24.16.2.12.16.36-.56 3.4-3.64 5.4-2.84 1.8-6.56 1.72-3.8-.04-6.56-2.04-3.08-2.24-3.6-6.16-.88-6.36 1.72-10.24 2.36-3.48 6.56-3.76 4.12-.28 7.56 2.68 3.76 3.24 4.8 8.96.08.4-.32.48-.08.08-.24.08-1.56 0-4.64.08-2.08.04-3.16.04-3 .04-5.2-.08.24 1.8 1.02 3.02t1.86 1.54 2.12-.48 1.8-2.68q.08-.2.36-.24.16-.12.36-.08" data-featurekey="nameFeature-0" transform="translate(52.821 143.17)scale(1.62178)" fill="url(#a)"/><path d="M5.18 7.28v10.54h3.38q1.4 0 2.52-.72 1.06-.7 1.66-1.88t.6-2.58q0-1.46-.57-2.68t-1.63-1.94Q10 7.28 8.52 7.28zm-3.32 0L.9 5.08h7.6q1.98 0 3.62 1.02 1.58.98 2.5 2.68t.92 3.7q0 1.5-.59 2.97t-1.63 2.57q-1 1.08-2.14 1.54-1.1.44-2.62.44H3.04V7.28zm25.191-.62-.82-1.84h2.4L35.811 20h-2.44l-.98-2.18h-4.54q-1.28 0-2.3.24-.9.22-1.5.58-.54.32-.72.66l-.38.7h-2.36zm1.6 8.96h2.76l-3.26-6.3-3.3 7.14q.44-.38 1.34-.6 1.02-.24 2.46-.24m16.391-8.34v10.54h3.38q1.4 0 2.52-.72 1.06-.7 1.66-1.88t.6-2.58q0-1.46-.57-2.68t-1.63-1.94q-1.14-.74-2.62-.74zm-3.32 0-.96-2.2h7.6q1.98 0 3.62 1.02 1.58.98 2.5 2.68t.92 3.7q0 1.5-.59 2.97t-1.63 2.57q-1 1.08-2.14 1.54-1.1.44-2.62.44h-5.52V7.28zm22.711 6.74v3.8h9.2V20h-11.38V5.08h10.5v2.2h-8.32v4.52q.62-.36 1.38-.48.56-.1 1.44-.1h3.26v2.22h-3.26q-.82 0-1.44.1-.76.14-1.38.48m16.591-6.84-1.74-2.1h2.82l9.58 11.4V5.08h2.2V20h-2.16l-8.56-10.26V20h-2.14z" data-featurekey="sloganFeature-0" transform="translate(84.645 213.743)scale(1.50564)" fill="url(#a)"/></svg>